<svg width="25" height="40" viewBox="0 0 25 40" fill="none" xmlns="http://www.w3.org/2000/svg">
<path d="M25 10C25 4.47715 20.5228 0 15 0H0V40H15C20.5228 40 25 35.5228 25 30V10Z" fill="#E75C08"/>
<path d="M7.19324 29.5024C6.93559 29.2448 6.93559 28.8261 7.19324 28.5684L15.4219 20.3559L7.19324 12.1272C6.93559 11.8696 6.93559 11.4509 7.19324 11.1932C7.45089 10.9356 7.86957 10.9356 8.12721 11.1932L16.8068 19.8728C16.9356 20.0016 17 20.1626 17 20.3398C17 20.5008 16.9356 20.6779 16.8068 20.8068L8.12722 29.4863C7.86957 29.7601 7.45089 29.7601 7.19324 29.5024Z" fill="white"/>
</svg>
