<svg width="25" height="40" viewBox="0 0 25 40" fill="none" xmlns="http://www.w3.org/2000/svg">
<path d="M0 10C0 4.47715 4.47715 0 10 0H25V40H10C4.47715 40 0 35.5228 0 30V10Z" fill="#E75C08"/>
<path d="M17.8068 29.5024C18.0644 29.2448 18.0644 28.8261 17.8068 28.5684L9.5781 20.3559L17.8068 12.1272C18.0644 11.8696 18.0644 11.4509 17.8068 11.1932C17.5491 10.9356 17.1304 10.9356 16.8728 11.1932L8.19324 19.8728C8.06441 20.0016 8 20.1626 8 20.3398C8 20.5008 8.06441 20.6779 8.19324 20.8068L16.8728 29.4863C17.1304 29.7601 17.5491 29.7601 17.8068 29.5024Z" fill="white"/>
</svg>
