<svg width="13" height="12" viewBox="0 0 13 12" fill="none" xmlns="http://www.w3.org/2000/svg">
<path d="M3.40002 8.59999L6.20002 6.19999L7.80003 7.39999L9.80003 5.79999" stroke="white" stroke-miterlimit="10" stroke-linecap="round"/>
<path d="M7.79999 5.40001C8.02091 5.40001 8.19999 5.22092 8.19999 5.00001C8.19999 4.77909 8.02091 4.60001 7.79999 4.60001C7.57908 4.60001 7.39999 4.77909 7.39999 5.00001C7.39999 5.22092 7.57908 5.40001 7.79999 5.40001Z" stroke="white" stroke-miterlimit="10" stroke-linecap="round"/>
<path d="M9.80003 3.39999H3.40002V8.59999H9.80003V3.39999Z" stroke="white" stroke-miterlimit="10" stroke-linecap="round"/>
<path d="M1 3.39999H2.6" stroke="white" stroke-miterlimit="10" stroke-linecap="round"/>
<path d="M1 8.60001H2.6" stroke="white" stroke-miterlimit="10" stroke-linecap="round"/>
<path d="M10.6 3.39999H12.2" stroke="white" stroke-miterlimit="10" stroke-linecap="round"/>
<path d="M10.6 8.60001H12.2" stroke="white" stroke-miterlimit="10" stroke-linecap="round"/>
<path d="M3.40002 9.39999V11" stroke="white" stroke-miterlimit="10" stroke-linecap="round"/>
<path d="M3.39996 1V2.6" stroke="white" stroke-miterlimit="10" stroke-linecap="round"/>
<path d="M9.79999 9.39999V11" stroke="white" stroke-miterlimit="10" stroke-linecap="round"/>
<path d="M9.79999 1V2.6" stroke="white" stroke-miterlimit="10" stroke-linecap="round"/>
</svg>
