<svg width="10" height="10" viewBox="0 0 10 10" fill="none" xmlns="http://www.w3.org/2000/svg">
<path fill-rule="evenodd" clip-rule="evenodd" d="M7.27273 6.36364H8.18182V2.72727C8.18182 2.22727 7.77273 1.81818 7.27273 1.81818H3.63636V2.72727H6.81818C7.06818 2.72727 7.27273 2.93182 7.27273 3.18182V6.36364ZM3.18182 7.27273C2.93182 7.27273 2.72727 7.06818 2.72727 6.81818V0.454545C2.72727 0.204545 2.52273 0 2.27273 0C2.02273 0 1.81818 0.204545 1.81818 0.454545V1.81818H0.454545C0.204545 1.81818 0 2.02273 0 2.27273C0 2.52273 0.204545 2.72727 0.454545 2.72727H1.81818V7.27273C1.81818 7.77273 2.22727 8.18182 2.72727 8.18182H7.27273V9.54545C7.27273 9.79545 7.47727 10 7.72727 10C7.97727 10 8.18182 9.79545 8.18182 9.54545V8.18182H9.54545C9.79545 8.18182 10 7.97727 10 7.72727C10 7.47727 9.79545 7.27273 9.54545 7.27273H3.18182Z" fill="white"/>
</svg>
